<?xml version="1.0" standalone="no"?>
<!DOCTYPE svg PUBLIC "-//W3C//DTD SVG 20010904//EN"
 "http://www.w3.org/TR/2001/REC-SVG-20010904/DTD/svg10.dtd">
<svg version="1.0" xmlns="http://www.w3.org/2000/svg"
 width="256.000000pt" height="256.000000pt" viewBox="0 0 256.000000 256.000000"
 preserveAspectRatio="xMidYMid meet">
<metadata>
Created by potrace 1.14, written by Peter Selinger 2001-2017
</metadata>
<g transform="translate(0.000000,256.000000) scale(0.100000,-0.100000)"
fill="#000000" stroke="none">
<path d="M1092 2530 c-223 -59 -429 -250 -501 -466 -33 -99 -41 -177 -41 -397
l0 -208 -31 -45 c-124 -181 -177 -453 -131 -674 47 -226 165 -415 343 -549
164 -124 335 -181 545 -181 70 0 153 6 193 15 354 74 628 353 703 715 46 221
-7 493 -131 674 l-31 45 0 208 c0 114 -5 237 -11 272 -25 160 -92 286 -213
406 -94 93 -200 154 -322 185 -103 27 -270 26 -372 0z m303 -265 c84 -22 147
-60 210 -126 74 -77 113 -162 125 -270 10 -87 14 -379 5 -379 -3 0 -26 15 -52
34 -128 90 -217 116 -403 116 -186 0 -275 -26 -403 -116 -26 -19 -49 -34 -52
-34 -9 0 -5 292 5 379 12 108 51 193 125 270 116 121 278 168 440 126z m-12
-1111 c93 -61 102 -199 18 -278 l-31 -30 0 -164 0 -164 -29 -29 c-40 -39 -82
-39 -122 0 l-29 29 0 164 0 164 -31 30 c-102 95 -64 262 69 305 42 13 113 1
155 -27z"/>
</g>
</svg>
