<?xml version="1.0" encoding="utf-8"?>
<!-- Generator: Adobe Illustrator 16.0.0, SVG Export Plug-In . SVG Version: 6.00 Build 0)  -->
<!DOCTYPE svg PUBLIC "-//W3C//DTD SVG 1.1//EN" "http://www.w3.org/Graphics/SVG/1.1/DTD/svg11.dtd">
<svg version="1.1" xmlns="http://www.w3.org/2000/svg" xmlns:xlink="http://www.w3.org/1999/xlink" x="0px" y="0px" width="96px"
	 height="96px" viewBox="0 0 96 96" enable-background="new 0 0 96 96" xml:space="preserve">
<g id="Layer_2">
	<circle fill="#263238" cx="47.88" cy="47.984" r="47.88"/>
</g>
<g id="Layer_1">
	<path id="bottomHead_1_" fill="#ECF0F1" d="M83.666,53.959h1.558c0,0-1.93,2.18-4.11,2.99c0,0-1.185,0.062-0.811,0.998
		c0,0,1.434,1.058,1.684,1.182c0,0-5.857,1.62-7.04,3.427c0,0-4.548,5.107-7.039,6.604c0,0-2.866,2.802-4.922,2.928
		c0,0-3.799,0.061-4.921,2.367c0,0-19.062,3.116-20.059,2.866c0,0-8.659-1.869-11.586-3.427c0,0-8.036-3.177-9.905-5.607
		c0,0-4.298-3.86-4.858-5.667c0,0-2.056-3.49-3.115-4.361c0,0-1.121-2.056-1.37-2.18l1.433,0.685l0.104-0.603L83.666,53.959z"/>
	<path fill="#2C3E50" d="M24.488,61.311c0,0,0.397-0.225,0.997-0.249c1.365-0.058,4.127,0.217,8.123,1.544
		c0.034,0.012,0.067,0.022,0.1,0.034c0,0-1.08,1.618-4.277,3.155c0,0-1.537,0.871-2.534-0.498
		C26.897,65.297,24.987,62.682,24.488,61.311z"/>
	<path fill="#2C3E50" d="M29.846,61.602"/>
	<path fill="#2C3E50" d="M30.074,61.602"/>
	<path fill="#E67E22" d="M22.08,47.44c0,0-7.31-9.718-5.731-20.266c0,0,2.907-1.578,14.867,1.91c0,0,5.232,3.074,6.478,7.475
		L22.08,47.44z"/>
	<path fill="#ECF0F1" d="M23.118,45.281c0,0-5.121-7.716-3.962-15.46c0,0,2.134-1.159,10.916,1.401c0,0,4.632,2.189,5.547,5.421
		l-6.645,4.111L23.118,45.281z"/>
	<path fill="#E67E22" d="M73.408,40.796c0,0,2.741-8.971-2.158-22.925c0,0-2.99-6.729-4.319-8.389c0,0-5.814,2.409-9.802,9.22
		c0,0-4.401,10.382-4.317,14.785L73.408,40.796z"/>
	<path opacity="0.3" fill="#231F20" d="M37.511,36.008l0.175,0.502c0,0-6.075,3.496-7.591,4.784
		c-1.516,1.288-8.098,5.772-8.078,5.98c0.021,0.207-0.208-0.208-0.208-0.208s0.943-0.901,2.149-1.952
		c0.941-0.818,2.079-1.705,2.938-2.388c0.583-0.463,1.038-0.841,1.267-0.997C29.217,41.011,34.584,37.212,37.511,36.008z"/>
	<path fill="#ECF0F1" d="M71.541,37.39c0,0,1.361-7.28-2.282-17.654c0,0-2.223-5.001-3.21-6.236c0,0-4.323,1.791-7.286,6.854
		c0,0-3.854,8.323-3.792,11.595l8.098,2.077L71.541,37.39z"/>
	<path opacity="0.3" fill="#231F20" d="M52.862,32.446c0,0,2.579-0.1,6.86,0.833c0.947,0.207,1.97,0.494,3.076,0.81
		c0.512,0.146,1.188,0.355,1.931,0.693c3.454,1.565,8.666,4.755,8.846,4.935c0,0-0.083,0.332-0.249,0.581L52.77,32.78
		C52.77,32.78,52.862,32.57,52.862,32.446z"/>
	<path id="uperHead_1_" fill="#E67E22" d="M8.292,52.714c0,0,1.122,3.115,5.482,0.747c0,0,4.153-2.615,10.216-8.264
		c0,0,8.389-6.893,15.449-9.634c0,0,3.489-1.993,11.379-2.824c0,0,6.063-0.747,13.455,1.911c0,0,7.89,4.152,9.136,5.315
		c0,0,3.239,3.655,4.901,7.06c0,0,2.907,3.572,4.567,3.654c0,0,2.409,0.249,3.239-0.415c0,0-1.08,3.321-4.318,5.232
		c0,0-2.493,2.99-11.13,3.157c0,0-14.369,0-16.196-0.333c0,0-8.556,0.748-9.967,1.246c0,0-7.56,1.495-10.798,3.073
		c0,0-5.897-2.077-9.22-1.329l2.658-1.744c0,0-8.223-2.159-11.461-1.828c0,0-6.064,0.168-6.978-1.578L8.292,52.714z"/>
	<path id="rigthEye_1_" fill="#D35401" d="M36.864,61.476c0,0,6.981-2.039,14.453-2.843c1.075-0.116,2.161-0.261,3.239-0.312
		c0,0,1.574,0.158,3.176,0.207c1.387,0.042,2.824,0.063,3.219,0.042c0,0,5.813-0.831,6.229-6.396c0,0-0.913-5.897-6.229-8.305
		c0,0-5.231-2.492-9.303-1.911c0,0-1.951,5.855-3.239,7.559C48.408,49.517,45.087,55.412,36.864,61.476z"/>
	<path fill="#D35401" d="M27.146,59.566c0,0-2.164-0.57-4.257-1.018c-1.075-0.23-2.16-0.415-2.865-0.498c0,0-3.51-0.312-0.852-4.383
		c0,0,3.987-4.235,7.226-5.895c0,0,5.232-2.825,11.544-3.821c0,0-0.456,5.895-2.699,9.133c0,0-0.962,1.659-3.363,3.656
		c-1.301,1.082-2.615,2.435-5.357,3.28L27.146,59.566z"/>
	<g>
		<circle fill="#ECF0F1" cx="55.22" cy="51.095" r="4.735"/>
		<circle fill="#2C3E50" cx="55.22" cy="51.095" r="3.571"/>
		<circle fill="#ECF0F1" cx="57.088" cy="48.978" r="1.205"/>
	</g>
	<g>
		<circle fill="#ECF0F1" cx="29.97" cy="52.588" r="3.489"/>
		<circle fill="#2C3E50" cx="29.97" cy="52.588" r="2.632"/>
		<circle fill="#ECF0F1" cx="31.347" cy="51.028" r="0.887"/>
	</g>
	<g id="mouth_1_">
		<path fill="none" stroke="#2C3E50" stroke-width="0.6057" stroke-miterlimit="10" d="M27.977,65.795
			c-0.285,1.443-0.159,2.99,1.392,3.629c1.576,0.652,2.417-0.526,2.844-1.885"/>
		<path fill="none" stroke="#2C3E50" stroke-width="0.6057" stroke-miterlimit="10" d="M27.977,65.795
			c0.003,0.114,0.01,0.211-0.014,0.319c-0.902,1.079-2.193,2.033-3.689,1.697c-1.472-0.331-1.62-1.585-1.28-2.846"/>
	</g>
	<polygon fill="#ECF0F1" points="96,64.934 95.974,65.04 95.966,64.934 	"/>
</g>
</svg>
